<svg id="canvas" xmlns="http://www.w3.org/2000/svg" width="1094" height="490" viewBox="-12 -12 1094 490" data-ready="true"><g><path d="M0.508180181451167 -0.5977058911288299 L1070.3714440730328 -0.2785136608402864 L1069.5341610565358 69.78724539640265 L0.49067661755312036 69.78911060370343" stroke="none" stroke-width="0" fill="#d0ebff"></path></g><g><path d="M-0.30508908200722207 70.19825952727597 L159.98394857712893 70.06762200951373 L160.08135867016796 190.39703101861892 L0.13315083553313276 190.2114156872607" stroke="none" stroke-width="0" fill="#dbe4ff"></path></g><g><path d="M0.3795770274779067 189.69986047583217 L160.34079167491268 190.1609959474587 L159.98448540143184 309.7222293259007 L-0.37618949584772654 310.27137337669745" stroke="none" stroke-width="0" fill="#d3f9d8"></path></g><g><path d="M0.2942332744484261 309.81414179790426 L160.19836279148097 310.30581604052173 L159.71497259190045 430.1803578940092 L0.10336180483955887 430.0246265528624" stroke="none" stroke-width="0" fill="#fff3bf"></path></g><g><path d="M159.99206125855446 189.800103053826 L1069.7692975567975 190.369509601462 L1070.3499791799272 310.2564102201418 L159.78634527712546 310.1224010715565" stroke="none" stroke-width="0" fill="#f8f9fa"></path></g><g><path d="M0 0 C0 0, 0 0, 0 0 M0 0 C0 0, 0 0, 0 0 M0.07506354827305195 12.146506861333158 C3.0875585975174453 7.119311292688141, 6.31636946742343 4.065618069214682, 9.539772215103085 -0.4015049502233975 M0.6717825542011348 12.239904637941647 C1.8886996877003819 9.059226823642016, 4.7889835062245485 6.432585399465376, 10.454064724602661 0.24710787628883074 M0.3992385143123631 24.415810063420118 C7.520585843443186 14.304459559938701, 15.783192317448718 6.39014585982973, 21.71549514547096 -1.2110819943097912 M-0.008320151869068038 23.961010660301568 C6.778414918946014 16.706247831903823, 13.950673720894901 7.654015097790611, 20.88702126462887 0.4019640304643886 M0.8119128684929944 38.4233650294514 C10.66985908779993 23.113698065161827, 21.93093264991176 10.618677525659457, 33.36912239188176 1.020865348993397 M-1.0408672767453715 36.93424330481183 C10.358840832258588 25.683256485840325, 19.748061395900926 14.095913562805656, 31.76533615702013 -0.530751651725241 M-1.202672033152583 49.05180562780085 C7.450320083053474 37.8347773278998, 18.062791737256543 28.254860595591243, 42.00036065618017 -0.9164493900060819 M-0.7839151516880044 48.690061743036665 C11.264025745631931 35.76340950986011, 21.754935105519206 24.440881505803983, 43.00132126757673 0.27019742097161237 M0.31609472057303095 60.48031205715142 C18.128630872315895 37.26414415143239, 39.70268100529248 16.111290234310623, 51.72436501168741 -1.2996506698276435 M0.6596282754640937 61.49355341252271 C14.027564760467298 45.26822157908404, 27.45006152970698 31.126003652456895, 53.09983135145174 -0.18762896158047476 M-0.9762889533250332 72.28628590256135 C15.603301256749488 56.40325183251543, 29.9482304001264 40.7391893665073, 64.72082659147588 -1.4449819495220997 M-0.4086702822414833 73.61330756247277 C14.21115123231123 56.90955271689045, 26.800998728280053 41.3765804394628, 63.390816406721164 -0.6447170432775613 M-0.49753329621039555 85.39278567487573 C24.69829382345881 55.28707163273177, 49.4616256980415 29.07147064807313, 73.71642042337307 -0.5037869250539309 M0.6474573204600906 85.29418497011457 C25.948477009795397 56.16471951057479, 50.74932079160466 26.575502211845027, 74.09598427010856 -0.8123873866545246 M-1.693119483355889 97.20386723595925 C23.940007217187347 67.44161871547043, 49.0460847665811 40.823575115696144, 84.96485755329292 -0.50611223858259 M0.43132263382369607 97.79079266501613 C33.128550392097175 60.88724719019834, 64.72347838219528 23.527024288785743, 85.21989605091203 -0.9211071988799517 M-1.1439697455673667 109.08089822738816 C20.30857639980255 87.2551138803678, 40.43530373878336 64.16044665414657, 95.06021998393267 -1.020216604550645 M0.3089684409337249 109.83624629452144 C35.77579909009461 68.72093661124036, 71.14542351168365 27.879420716749163, 95.06016586478188 0.0867549440882373 M-0.602598461033082 120.94902492886924 C34.06914066106389 83.97524363162202, 66.50126504250343 45.687759105512875, 105.46677268366258 -0.30948493015523687 M-0.24320874076397753 121.908372996548 C24.325281467906965 93.99057068090815, 48.004002249703106 66.54606245142298, 106.98864683976677 -0.3250385692788768 M-1.2465435649583783 135.05000312805268 C27.014871893904616 103.13544093878635, 53.165225820993015 74.22720166482327, 117.68986086023786 0.2374124072484605 M0.3792647442021536 133.52709454299165 C44.152818055644566 83.67585627942356, 88.11645960655 34.80393975735056, 117.01692531628078 0.782786814888466 M0.6356143875696496 146.78945294270247 C42.605524706580745 97.0268884353844, 84.8819049999552 49.712034964741925, 126.83041260190433 -1.1319392455265218 M0.0403012868853688 146.1036308618619 C38.357142518819536 100.39293865638771, 76.85087671969856 57.06990460376567, 126.50977780697089 -0.3761345680871506 M1.1710652250450808 157.80426160586825 C33.48397357910453 121.54422648918604, 65.09032967497419 82.92773826335505, 138.09276865602797 -0.029941569104766808 M-0.03280248105280398 159.1622288978488 C44.803591647648254 104.06264952595052, 91.90804567498046 51.93578189436638, 136.99019140724317 0.7912792537218067 M-0.07762000142854511 170.11415976569884 C42.13524106379665 123.43825478736633, 84.96807218298053 74.11041232920668, 148.28988719852111 -0.3732318313234737 M-0.3601895646383125 170.76982047382373 C31.65759098237528 134.42538728612763, 63.4451416984991 98.07848826108753, 147.56365910179488 0.33841887930949605 M0.6799564491065185 181.86836099658862 C47.420807978604486 130.17818833289093, 91.84448038447597 75.53031814219796, 159.06005144894058 -1.0508866714057703 M0.6707178387928918 183.04003463922427 C35.758655900769824 142.064738542957, 70.91126984517742 101.26361060250365, 159.4101511506594 0.7936243267543628 M1.0814730386618912 195.37427950363016 C35.45807925562074 154.17231616881745, 70.65646826469303 113.90879554606813, 169.74309730344785 0.7909821236773437 M0.4724178665463743 195.53557477451383 C54.515089993483635 131.37502516285096, 109.30403869782721 68.18674770268278, 170.05107917316448 -0.19303439956045393 M0.3579635754251435 206.9540780854394 C59.711588628299566 137.5664935536402, 122.76816273471799 66.03582264277611, 179.7121700880208 1.0079183782046472 M0.7044717859953885 206.9225466032448 C44.995880950528736 156.99296038331016, 88.32545440776057 107.45981750444012, 179.80784350122696 -0.36360783658353213 M0.2591817506042804 218.62789228084642 C46.96231554192941 168.26876403524514, 90.08055146069452 116.3228591876795, 191.42532154947054 0.27205687154425173 M-0.06418101550942878 219.99109021358728 C73.14835169071984 133.95781259780418, 147.9856277645899 48.305579731618074, 190.86997099537334 -0.2770708932394259 M-0.7080627596620557 232.29480319386087 C80.01273811604685 137.90328943331852, 159.26958625147918 46.907416003027826, 202.16989240376253 -0.7228135835811561 M0.4110036870420598 232.11436225013048 C43.637628430198525 180.82411245905735, 87.7094166139626 130.78989028254406, 200.8916740225232 -0.13040869457220522 M0.5843793281950684 244.1617614380132 C65.2040254015919 168.88677222274657, 130.2932524018498 95.75383401761451, 211.3582403150695 -0.5520979702588681 M-0.3802145007714026 243.75616204274883 C56.14186419324192 180.835753267977, 110.68513232814178 117.58385759265624, 211.95590438647113 0.11298102841427579 M-0.1929221761640479 256.67482267447855 C59.83209905917969 184.62914867732874, 122.61752028934059 114.04255369151683, 223.57687528438598 -0.43519978767379647 M0.1934305351401302 255.77907282516972 C78.86517303385001 165.55819054883716, 158.64371298204554 73.77630283768445, 222.44457422166303 0.3987198004100005 M1.148464175174496 267.71188348792333 C67.46393301352627 191.21949488391053, 135.48936234034602 114.46550925366846, 233.34521109734493 -0.2387120926953037 M0.42918167256178197 268.06101319202634 C88.2466867807012 167.04124658788038, 176.10025390127495 66.10436795377588, 233.0714593788416 0.16962118125198544 M-0.5756025907761939 280.9838339291355 C80.73577270498595 191.1187586543186, 158.12357531541087 100.73886579937117, 242.90914681457573 0.38243320299684574 M-0.4199224248704212 280.6742244086705 C66.54124984403362 203.440343832654, 133.0955422177417 126.72078125408177, 243.92733048883846 -0.3597702049644596 M-0.3744646037828669 292.734970517497 C54.9225057484073 226.49487273042004, 111.82521487468296 163.23950893300625, 255.0290752476988 0.8269998474492416 M-0.11315375065536323 292.4791087746311 C54.359027104211535 229.8276538540557, 108.00665887898698 168.26884080132317, 254.79699449124251 0.2581149291397405 M-0.3635269300492886 305.4017405569394 C98.48265499594584 191.61824617687637, 198.6357997547722 77.03787194148093, 265.4627800128351 -0.21983665321850307 M0.43128464204952716 304.45085154009405 C99.7122894040824 190.41007932121298, 199.84742643643534 75.10882439920555, 265.07242124222853 0.2891866814944428 M0.9778689664293289 317.1458255452218 C106.56598630108093 192.63567193336283, 214.01132464852267 69.43723575183562, 275.6840223843792 -0.38566818498027783 M0.4864230285594037 316.55055296770826 C101.11269990099157 201.2930921816269, 200.84916931787234 85.74006463026964, 275.78470371558547 -0.30096872445157025 M-0.13324726748604948 329.0272150032841 C84.59303766046696 233.1006385656097, 168.3077441477037 135.13273099481123, 286.68497352351307 -0.20307083689124888 M0.24020993986565703 329.12465949074954 C112.31752698319131 200.93966243407206, 223.0029993706011 72.98412123067455, 286.60168129176213 -0.16388384029655242 M0.29497834677408163 341.8524562206619 C59.42035430148376 271.86800205965375, 119.69715377889405 202.56155080341358, 296.9783069050217 -0.46581716932918615 M0.13532762850343366 341.31976155036654 C107.68464475326897 216.38009049788482, 216.3806920242277 92.67067153069239, 296.8154916953966 -0.2874514267510291 M-0.2655038611188679 353.0964188723022 C63.37022218644871 280.00991799407353, 128.36951417141015 206.6696075518557, 307.55655985585014 -0.7589587320300696 M0.144249077169497 353.7887720356567 C105.84351693902923 231.77600482244878, 212.6944086912533 109.73056981747298, 307.82845041179445 -0.0713549836533783 M0.24717602010509657 366.12281170295694 C79.35577406036334 276.5889618156921, 157.29324759933402 186.56813900346393, 318.40714384893744 -0.3118321220874749 M0.2729610702579235 365.4645243623511 C96.68104287435568 253.69592615435883, 194.96617659057236 141.3288909197317, 318.17573378002515 -0.6140504353750702 M0.003214587968791538 377.4561014386354 C108.21834634011051 252.90469608824716, 216.88164251836665 127.84860521940493, 328.29746027764014 -0.3650785855657144 M0.31460458694908 377.946276835685 C123.13742800550685 235.8560053125717, 246.65666350778534 94.61128610363586, 328.7017126139018 -0.503605247073775 M0.1587548386085528 389.4641924887181 C110.72112540213409 262.42623386379904, 221.80509501295035 134.50798797985112, 338.91814341973105 -0.5419075955692181 M0.10868125134783677 389.6548855784473 C84.6132116030029 294.3920554808902, 168.44517701263496 198.29121146214231, 339.6229274774058 -0.6126147927877321 M0.06219367563860989 402.86140232474173 C105.19759127371162 281.81757523054466, 210.27019336753403 160.39189651948695, 349.62066758722443 -0.06557743227937274 M-0.01420437708314043 402.3549172736179 C87.0415914687632 299.64784594863266, 175.8553644022431 198.02996682146718, 349.43415196090746 0.44747997927551114 M-0.1933665337189575 415.20345871893835 C128.53951998496942 265.86821235683635, 257.3175546159194 116.98692118316144, 359.87007652921596 0.6459645770004335 M0.08552478958516463 414.5348887955753 C102.1844754752146 297.34639401644694, 204.57513227692834 179.43786144828618, 360.38969359978483 0.24758802865883928 M0.06785226846734588 426.660463625838 C75.0577184717991 339.9704291804505, 150.90794138045268 253.3287800688929, 371.0674854119543 0.4375781250387391 M-0.08485920548448372 426.4753737246564 C83.72688562143989 330.99845991522386, 167.1883081744127 235.4488775725671, 370.8863936674307 0.42350075603750015 M7.379591200039475 430.12599697141644 C155.92419575822242 260.48833710691406, 303.9264237267785 90.39278293855652, 381.3350009126182 0.4263865696548277 M7.228244794185473 430.21997032864846 C124.06438752777254 296.27106170841876, 241.2196228059962 161.18992928360285, 381.6504426876624 0.4403292191660517 M18.567918872195353 430.4288114878873 C138.51345350960048 291.4860014990996, 260.54802912623904 152.7221002481765, 391.7992093181962 -0.2489090706994822 M17.902615452792915 430.38755825684126 C157.2093307085188 269.5926680316889, 297.61369773429817 107.98389335906577, 392.06117605635256 0.044426338457428494 M28.10633369359433 430.57338106648723 C167.02155682034882 270.10348624696525, 306.68796878153086 110.34416155221231, 402.5739995818089 0.20818708432791966 M28.716490522089376 430.6188546445914 C143.7051335276628 296.7169173681575, 259.800554830313 163.41162915339595, 402.3526980034091 0.27991192583388425 M39.26342146270815 430.29310789258386 C136.9635305564278 319.4013668011805, 234.52071893939714 208.30244518384032, 413.2464209906015 0.17603234903820408 M39.08428539636047 430.23461183832313 C170.37778212107102 279.54754629642554, 302.321593054812 128.45145531910902, 413.3738584309841 0.06824946635326944 M49.69351390568298 430.80615321479587 C183.2501851123779 277.98491138632465, 315.68100963773446 126.48564236308836, 424.1286717664489 0.5936858459073378 M50.07408956181467 430.4823465182513 C145.86265098494724 321.1874819703474, 241.21379493481962 211.1611448266837, 424.0733160682131 0.19137189673007513 M60.98365590059566 430.1983026762049 C140.05414940822004 337.3731349387586, 220.04159809196963 245.1169600872791, 434.489887907323 0.09147504746377934 M60.791947258969806 430.24463598326093 C210.24455396763946 258.4009146088759, 359.2072065645773 87.12623696476227, 434.81827236596473 0.11720341129131051 M70.78659788276865 430.19989686970854 C153.307725494681 332.5449991291476, 236.54804926470618 236.80275355969115, 445.21734826423597 0.44151926024474214 M71.24326741588607 429.93027906839535 C206.1602324753897 273.99861854517604, 341.05365518452686 119.2629167553118, 445.30724086914597 0.03764588170306758 M81.98038965132108 430.0274887963071 C178.5378854376889 320.3237131448644, 273.8505632095872 210.06359754846386, 455.60685513072355 -0.014203303660745813 M81.89563316883526 430.34657864125836 C225.81870458839046 264.94802391594635, 369.92105470269945 98.80921171237318, 456.02830753983557 0.0016099752918884713 M91.88534772655976 430.5275338136478 C176.14076030962335 332.8634677704629, 260.96453093800324 234.67201355499617, 466.9685277120085 -0.5813653027294192 M91.7775981888551 431.0163804543171 C225.8685993020381 274.2469993739097, 361.6998281133081 117.96932749683609, 466.3778618745676 -0.1985005304068495 M102.46453595538912 431.07361497650027 C213.67908761371592 303.8753723107384, 324.5472709258062 176.17380966381458, 477.3586515453515 0.08484690252780669 M102.31348301776165 430.61899411770713 C234.1028602595558 278.8945677424754, 366.4620604216674 126.30353825710695, 476.86329037014343 0.07730938925173741 M112.59845861994795 431.3106992177321 C191.69104845587842 340.9710616062159, 270.5305647075028 250.0282213490212, 487.3006217290035 -0.496652287062477 M113.06765777640118 430.57516106606755 C201.32951223273497 329.1674825026048, 290.47297212038274 226.70112100532253, 487.85460702668087 -0.26873341021047065 M123.91888848504111 431.463670698126 C223.46779795148498 318.15694598080006, 321.5175433167148 204.91938573125753, 498.77852953404846 0.3081968598869525 M123.8300809709642 430.8592780537852 C232.45302917658802 306.5092051484057, 341.51193684800035 181.2019619248966, 497.98498071716034 -0.20260715380796512 M134.22253181464652 430.94081250399273 C237.8950649739425 310.78976961206047, 340.9077105844777 192.87458353851272, 508.4098090094884 0.07176259988009168 M134.43353005858975 431.0484029822781 C242.79454558378023 304.26358192697444, 352.3753238213793 178.04564276724741, 509.06028991280147 -0.277643794604603 M144.31398709909007 430.2131327015903 C277.79603176011625 277.53521961995705, 409.75498858530693 123.8138871357429, 520.0340595118402 -0.7347253981174612 M145.24839937530615 430.66021261688235 C273.38094662218384 282.1565696845088, 401.35066019212906 134.83909207659482, 519.5276184335066 -0.4215903190675798 M155.66452889060372 430.44553649379947 C284.6216862510647 280.9926308434714, 415.80496302564467 130.27156615203637, 529.837229033229 0.34947348218372853 M155.79710541277294 430.8332658604781 C274.93207763149314 294.2006984183347, 394.574164112002 156.91591251739024, 530.3900210896331 -0.05231941171255916 M166.40880412699926 430.7507295296247 C296.5953479523914 280.99459010234654, 425.9119740096639 132.72104492341774, 540.7382383231383 -0.7354303014762484 M166.42021084682747 430.39003275339144 C260.39360872693607 323.0711989118667, 353.2597911645349 216.6692606612918, 540.701594524745 -0.02571136375075514 M176.82255040673147 430.09992937891406 C265.38568080801286 329.4492334031743, 352.8119062816881 228.1452917567305, 551.0817556881649 -0.03781551556946405 M176.86915812466188 430.4861047393947 C293.671481968561 296.12042823155514, 410.7136178481526 161.35179202955447, 551.5875522812526 -0.29099013454675604 M187.864436481841 430.2214345605463 C274.4106053140107 330.3162839777295, 360.1958077011606 230.27136124684367, 562.1921180644833 -0.011226014720870647 M187.2905478418923 430.62804728223216 C285.9547728263961 318.9447986490856, 382.7151462279279 207.01448850759564, 562.1506485453732 -0.3139717456165993 M198.1567787251256 430.92796768111884 C274.24658176104435 341.49777047436964, 350.1541909755373 253.17413912604903, 572.1312494908557 -0.12248178480246419 M198.41253011178858 430.74477945730854 C340.859133965634 264.5493960639521, 484.32869274422967 99.90301607684626, 572.6326743287844 -0.6459483669272353 M208.46126619014385 430.4481312201948 C297.5414748365987 326.5538913134023, 388.2937032751834 222.8178652095381, 583.0403952650619 -0.20985008437688246 M208.59673757215512 430.7086252522783 C295.0049571864623 332.55209715556236, 380.6917565321373 233.26234514325037, 582.622100847433 0.6571472052260534 M218.85772113729183 430.36966590085694 C324.7980646349472 310.22883734614544, 431.3503863995613 188.31871919794492, 593.6210163065555 0.22247620797972828 M219.57174509648945 430.5757434639676 C360.6268523509632 268.74470205321893, 501.71101462562694 106.9774141977452, 593.3287984082467 0.6068918242543233 M229.87214672453993 430.73471877235374 C349.5616897216371 293.4959889423579, 467.34322731946867 157.32130198837456, 603.7556236186815 0.2837794471024368 M229.826231277968 430.42759755709994 C357.4375253409536 286.5182197209407, 483.7732140929573 141.0555601159098, 603.8357933568332 0.05489524613320082 M240.40783365395367 430.1083412010098 C347.54297394267223 309.7709919209522, 452.66659909685103 188.01661494233167, 614.9163214875043 0.5022763533989607 M240.92753533589067 430.41606577116977 C382.272402647786 266.99646625780014, 523.8885407175096 104.0185027651884, 614.8820534615444 0.48423616368151146 M251.6382210133411 430.40656504970417 C387.58673265611543 275.69883897955407, 520.7097833875479 120.70016582977338, 625.3317377438847 -0.37225525831994866 M251.16256501568589 430.5760475744626 C358.91126851220224 304.87853581944046, 467.6883872517311 180.2022834881918, 625.25273259325 0.06672785718500959 M261.44116649163595 430.1117923671086 C381.563936111254 291.97672677981166, 500.9771894283685 154.1305512956385, 636.0821989782736 -0.38855597706050116 M261.7144344168477 430.572794824442 C380.72795917626047 293.5872709336073, 498.4992642226988 157.86244434089383, 635.7123407976046 0.3873839524199118 M273.09077415055225 430.14586391043974 C404.0493283678797 279.47517888793715, 534.463874219795 130.11564000666593, 646.1913875690805 -0.37992684780354147 M272.536351386616 430.39638337861766 C376.6803311689277 310.9189107633344, 481.1996210043831 190.03067897467088, 646.4122163364526 -0.05778353731630209 M283.3439847594648 430.6717278791613 C388.2319406804346 310.17873321324794, 493.0069248351913 190.34513997496958, 657.4554287943766 -0.30754452807529553 M283.19133104859867 430.00603658020566 C406.95538451942014 288.93363889488563, 530.0031169866617 147.41136735676508, 657.2257079396052 -0.14641770035130214 M293.878903096034 430.14711998598034 C436.3688383045594 265.0199016742289, 579.1645413536637 100.70003078356912, 667.6635239972345 0.4786343520652233 M293.49650821254215 430.30218887059937 C408.60916202321715 300.08026955872043, 522.5705790595017 169.25583460275558, 667.6110700164531 0.40900124138465926 M304.66537541316023 430.0014633020456 C429.3979546312791 286.8234816295128, 554.5383752487193 142.92187462416794, 678.2995923381898 0.3609454747959085 M304.1304619684631 430.3844722737965 C422.2920794038423 295.008254217337, 538.9150949809847 160.51799645078216, 678.532053052789 -0.06486517190977525 M313.92750174550974 430.73665141823403 C438.02692002965307 289.24342703335867, 560.4083218590151 147.2180186366567, 689.2825041183007 0.058883453539845344 M314.2011107475906 431.06788335708154 C433.8905730380464 295.03664522524605, 553.1789824291313 158.04721532205247, 689.2447752808931 0.1569749925702084 M325.61895979985394 431.0970789031241 C464.19165121596916 268.6983941484452, 604.3777444789159 108.02572542970857, 699.115354739814 -0.3167126317968586 M324.9464345302608 430.6384187109475 C454.721844260692 283.9748356138864, 582.9588064072304 136.15305123367582, 699.5465496532763 -0.09990867671838148 M335.5607379108465 430.79619576178806 C435.6762778371618 316.7075936566125, 534.4560773866954 203.89591098555044, 709.6476579058267 -0.22481358233489704 M335.9055940452221 430.9078936227482 C457.7472090663029 290.2127863097751, 580.8539024321104 148.89213403601906, 710.2890198877569 -0.2844243293801596 M346.313937340735 430.42278082660664 C487.43972631471235 269.8594171040102, 628.9359238234163 107.28751398871601, 721.2647550748037 -0.151149253658933 M346.3685918835917 430.53850264095377 C436.2628296790381 325.1780008249684, 527.4121307656187 220.09513456450262, 721.0057403157036 0.025497940642476805 M356.6463722506638 431.24850406280746 C453.5354761879685 320.2407238476315, 549.5802596476657 209.82608913575476, 731.2003785810402 -0.25425534884437284 M356.9976750979882 430.7383020779085 C434.3938534250885 343.5538936476662, 511.9972743247065 254.79633385572606, 731.7608821535564 -0.37955812975355446 M367.52475191543067 431.3509747529112 C513.741520015571 263.4901319455417, 659.2522195131254 95.44123112942432, 742.747163941507 0.2849817170281997 M367.7031823341929 430.88338000667716 C506.251103030086 268.90883238031057, 645.8234401694205 108.33757714897455, 741.9326978107039 -0.08685363539890197 M378.3312515041098 431.07053377435193 C469.59996069683126 324.8206747297515, 560.7854018771856 220.4766106553164, 753.2802761863719 0.2172138221676541 M377.8535367721445 430.7114822608234 C458.378920665022 339.86808578448023, 537.4313455146672 248.91868213905525, 752.6578754904267 -0.1955992414433735 M388.7053754133042 430.40933156306505 C488.59635956373955 316.2715397026573, 589.6218683839849 200.01097240609462, 762.8066992042893 -0.11533702193467517 M388.890235894398 430.8342758661644 C513.0310529257065 286.4316412313819, 639.1951557289676 142.03252380372655, 763.3405163556679 0.02169837038154332 M398.93141484468566 430.6640854506904 C506.311939265428 306.90069889764777, 614.6071356752539 182.73217801834434, 773.7078808465562 0.33398808957102155 M399.408007934547 430.4656346480492 C501.5537232213707 312.69381883358096, 605.1466817686712 193.78374777507022, 773.8080197039691 -0.24131502290734438 M409.97146559394633 431.1422493972477 C545.3812835330208 273.8504209206242, 682.028383689193 118.07656462598528, 784.7781925516346 -0.29434172543469844 M410.1645705169248 430.7216444793248 C535.1888510204229 287.37160487693797, 660.8380228789853 142.53050099112627, 784.8067603257581 -0.46913964116005363 M420.4398301911125 430.01739957328715 C541.4381836652823 290.9757800209929, 662.9837067514702 151.72102186669218, 795.8385793744085 -0.9559434910102763 M420.915678501692 430.3358833153183 C537.2009799341048 295.6073910133026, 654.5087242625165 161.24070730854905, 795.0041728295133 -0.37916959015147833 M430.9194113893178 430.82974610829376 C523.4788167501157 321.776965740954, 616.9455303787292 214.32947205304018, 806.5557136955968 -0.8975447437986249 M431.2453903983353 430.70156232587203 C516.1428980767699 333.0078872052563, 601.8961051740071 234.8292823473102, 806.1174770314306 -0.3726855682444575 M442.16927224153176 431.1748104855313 C535.200751138596 323.7738552656297, 629.1212968391127 216.08828228622542, 816.3488381922341 0.03958897826312263 M441.87132206988815 430.8588739020851 C573.977351116118 278.0242292275348, 705.5729538938925 126.67506902054674, 815.696166932866 0.4296713816656168 M452.83431820458406 430.05553976272466 C572.4039057107232 295.18369135878976, 690.6757261699504 157.55219241187805, 826.3297345421041 0.5718517409979749 M452.8144915605019 430.75582986297815 C577.1939048573429 286.5601755437706, 703.7191980526416 141.749662260065, 826.300100063122 0.26286680800524287 M463.58457040977135 430.51518011145464 C605.9357199585297 266.5585104650837, 748.0568979144954 102.298340691888, 836.6963333679117 0.6237615753759886 M463.0885512955437 430.4040362268767 C596.695122024335 275.7391753617835, 730.2900119657961 121.47217280702087, 837.3165288894864 0.04677812766840492 M473.64154436096555 429.87035553129874 C611.6325799996538 272.7083261286338, 750.0504361177753 113.10082699611795, 847.7913894295485 0.280955234462987 M474.13462526924536 430.4788772450166 C585.3329281336494 302.7076681288376, 696.4969409863709 174.06531300423467, 847.9413778030652 -0.05901562321838982 M484.8440364518574 430.6709836697845 C630.7749950267139 262.3159491632358, 777.0889246764124 95.05018958271161, 858.1021618137554 0.5819824939199465 M484.7638987954737 430.18373792820586 C633.1746017313916 261.2198977241338, 780.9730601910544 90.71211410411486, 858.3730399815531 0.2224029040131623 M495.09523686555036 431.00616782459565 C640.5602647244322 262.7971842377562, 785.8412689690472 94.79924477245618, 869.2056793238069 0.16104106984176084 M494.7896594172518 430.5747960886899 C633.4579327585838 272.21243106917007, 771.0596962644682 113.5384393409593, 869.1057313916342 -0.01512610775683651 M505.7990826626818 430.056687895084 C622.7802036339962 296.573892056423, 737.6313560173884 164.7754848298292, 879.7718791882284 -0.08346875342857521 M505.4619331742901 430.2649677127277 C613.6835718660171 305.78973312407066, 721.770316626998 181.61928967488208, 879.8513315681136 0.3606056553847439 M516.1034170063056 429.75039941063903 C651.5134773909697 275.2780039566007, 785.9327614774214 120.58539635358133, 890.5393809268843 -0.47211785935248407 M516.2381553709284 430.3742005015896 C660.974705778361 263.7885896006316, 806.6745197323891 95.99874257922706, 890.3344626092811 0.19752786490406274 M527.3283182669909 430.6716099960923 C646.877241715184 293.73764152323474, 764.7453876562043 157.54034765286326, 901.1907030910778 0.1895878543471767 M526.7709403152643 430.01632770036565 C606.6219017983 337.77167545515863, 686.6903964768863 245.94961404841538, 900.8257045018806 0.09372305011142451 M537.650718597045 429.6140283479823 C638.2581118148366 312.25127861094984, 740.4142682270725 195.7703145288909, 912.0665748935209 0.4780449983177346 M537.709663718654 430.16963454470164 C687.3453870804288 258.62972038543, 836.4549977548755 86.7881168597072, 911.6137432432386 0.08364568657299715 M547.4312794116768 431.3079910757621 C687.9931285357696 267.2462918054731, 828.9511348119057 105.58008802890375, 922.3957107919341 -0.4676266793443214 M547.7451987305793 430.8645298247907 C697.9923277882742 260.14239087541, 847.1425110004752 88.60992295870264, 922.4299849218357 0.20997858748124418 M557.759017844722 430.99769779060375 C642.2588160545243 333.60384603246115, 726.32311430749 237.66717239548598, 933.318175149893 0.4275019465745535 M557.9965775750879 431.0612103046131 C702.5339992040144 262.5078490945282, 847.6992327393621 95.97085160453585, 933.0665882179355 -0.28024899256377245 M568.982656296485 430.3735306911826 C645.1699536190536 343.3071596661664, 723.5057088496321 253.49228258898492, 944.0471339819829 -0.45267455536570433 M568.6102282365711 430.7809407990538 C671.4577616049991 313.39762049388537, 773.1961127051818 196.55126407595728, 943.4949398890607 0.1744489212658292 M579.4798644847745 431.4234907070627 C692.5190028702574 298.84104850953423, 805.7766317722875 168.773616499791, 954.4981463589424 -0.17771999872778282 M579.5129041255184 430.84151307502924 C717.0182764454456 272.1825639150766, 853.9750373201783 114.41147240272788, 954.2479436780538 0.10866450022612123 M590.1525203140905 431.15152537004457 C704.7644087573374 297.26661477412694, 821.5254695527409 162.7088957351662, 964.7326275607107 0.06351449683275692 M589.8833195628813 430.98614636058505 C688.5851655369486 318.20607195364596, 785.8181393842357 206.19543949978868, 964.6979185022017 -0.19176303156575913 M600.217761338406 431.25038936354684 C741.9664275001034 269.70660858148096, 882.7647817906187 107.80977293449419, 975.0866789512709 0.1544199453857032 M600.8379312938267 430.6332707928354 C731.51656126287 280.6661221383273, 860.9131666340918 131.53508252031745, 975.1215236445458 -0.3612700378791628 M611.7109964480185 430.158959948655 C703.8057716933971 321.93590534760625, 797.178969779466 215.25799943607691, 986.4549457174172 -0.4505449118287169 M611.0717726867762 430.8135263201862 C700.0131811086923 326.5945962381849, 789.9461675289155 223.55193982080874, 986.0107264203028 0.09586102291990106 M622.5478891243392 430.6395299499341 C735.9901486668232 298.6565595293068, 850.1100955148595 167.70695510301468, 996.8895291573971 0.28142141226701833 M621.9775191028777 430.8468392088151 C725.309784532069 311.46384745385666, 829.5279669255805 191.56816803091849, 996.5075318592953 -0.4099731844932002 M632.1732181202035 430.86407228231053 C722.581766202802 326.0029896880307, 813.2747888201015 222.05395283488716, 1007.7931885913448 -0.42105163082077657 M632.5036251826534 430.39684616960966 C722.2975551149186 329.17638433023745, 810.627979137292 226.86513612142787, 1006.9855640545182 -0.20037501316707435 M642.8021823289363 430.3263208003676 C723.5987260644555 337.49640014740817, 804.3540638728405 245.2100077544763, 1018.3032537237802 -0.1612806296090869 M643.4306882127491 430.8150260800669 C723.0574988066593 340.48347622676573, 802.2876290358952 249.7982265470789, 1018.1808348782964 -0.5365153134590106 M653.2863920583494 430.8362797034327 C746.6184287203009 323.52381547499806, 840.4797451825065 217.21612187116, 1028.9375647335814 -0.7344063486104386 M654.0383543339585 430.4469752828853 C787.7806822198498 278.0899476589738, 919.997948339053 125.93136640808561, 1028.1772255177195 -0.36957552330148635 M664.8145226576594 430.2187883883366 C797.2478534481421 277.11876931451405, 929.5610344054721 124.04934484377729, 1038.9485746462026 0.2511802443799479 M664.5315215851643 430.4053626485862 C804.4214798058957 269.6483466183983, 943.9284433394898 109.21315135809242, 1039.0114452473053 -0.3862467527263869 M674.9882373013165 430.0322962626752 C781.262583457027 310.6202580644775, 886.1160736496768 189.6342658201447, 1049.0177298954386 0.790560627453827 M675.4155116737751 430.46135296538273 C795.4433396453201 293.212096128341, 915.4481865127445 154.4605155339493, 1049.217464010448 0.30519167807860786 M686.3438590789167 430.66700845184135 C810.2170466801934 286.1047176088292, 934.9933122371897 142.6732310362561, 1059.0984836768853 0.2870262193679217 M685.7850912121327 430.4247034036489 C770.3092419746711 334.8079747606076, 854.0567413159957 238.19611035112226, 1059.8675146661153 0.06811445871899913 M696.7941958412542 430.7895823851784 C813.6372551992602 294.7860133074059, 930.5822102974201 159.90543084586824, 1070.4510201326377 -0.19834301247646502 M696.1925164011556 430.2392169012992 C830.8255680906839 275.45571812955217, 965.2538686246569 120.25211206681979, 1070.607862539359 0.044127904571207105 M707.2602288398728 430.18965411359864 C807.8152275857599 315.93999965789345, 907.7490676591789 201.11418507231508, 1071.011240904981 12.947858968371802 M706.978986406342 430.49391721070987 C841.5218738908926 274.6746242430974, 976.8946615052547 119.2329380228897, 1070.6684626519334 12.562157221693557 M717.9648198084755 430.9499013069675 C845.2868281164978 280.8366360893139, 974.0704811886444 132.7008902988506, 1071.2435757617682 24.84316279170645 M717.7661124039053 430.46971443280523 C787.8143843047186 347.0790898106021, 859.1224274737684 265.25905375128764, 1070.6065664006692 24.35981587836688 M728.0053329653977 430.2183750568657 C855.2881794006249 286.00767920550163, 981.86248474484 141.17531512445652, 1070.2590353353366 37.35010042376803 M728.525340812075 430.48592929464075 C799.1843701238098 349.4943830742148, 869.2062999991634 268.7944431044372, 1069.9057922593738 37.22785659537829 M739.1370907420232 430.7802081133615 C821.9059987851291 334.646726499481, 905.3907317477103 240.19611108180067, 1070.4467380821156 49.53919910161368 M738.8638715584915 430.02226817581476 C860.5920399420352 291.0901359916083, 982.0928001051823 152.16561527652792, 1070.0578710227364 49.408666875019634 M750.1399442690513 430.6724889023872 C829.5106473577167 337.1892703231212, 910.8379019619193 244.25946105099828, 1070.2045221161027 60.89150731697387 M749.302962013022 430.1142648373714 C817.5296116639942 353.67585081814025, 884.2465182183964 276.3265207868819, 1070.4422613390857 61.46009142775383 M760.8918131590499 430.9363901646897 C830.7860029515738 346.7921233778876, 901.9942400440987 264.9283421949282, 1069.9480273995841 73.26687344230197 M760.1165376910292 430.60889036552015 C863.5247537456318 309.26745902765754, 967.6142734313656 188.8982752637358, 1070.6690872305778 73.6381052459281 M771.3491787055972 430.8064054658952 C853.9922257888255 333.87527551597185, 937.7062650868535 237.5805458510235, 1070.9193513606435 86.08152305783713 M771.1856782060099 430.39389429519446 C862.6434948299822 325.2844032703264, 954.3034086824507 218.95531585167004, 1070.8621254138327 85.09777946934777 M780.6381681866945 431.39516015485594 C875.6654976371984 323.1700140714536, 968.8492669141035 214.79187481683397, 1070.3839883649612 98.07023559227223 M781.0100860666722 430.86992806269984 C845.7696713902944 354.64217640054744, 911.5149880899437 278.49394903156195, 1069.8174784858772 97.95364418934656 M790.767942571759 430.6527207472439 C869.303830930783 339.3418103696753, 949.3284181311701 247.53371335360694, 1069.599450776537 109.3371969394094 M791.6414552433806 430.96628941895983 C849.8798108551324 364.45102257604447, 907.0262618105774 298.97368064412433, 1070.1176673280893 110.36435439008923 M801.8083774526073 430.9833760083205 C857.2724312668834 368.72731212162614, 911.2137303982989 306.73903721568473, 1070.6198027462076 122.68303333219464 M802.2559765605502 430.81577119359036 C890.3995524709765 331.77207727578576, 977.7580631471777 231.2514826636821, 1070.4364819232117 122.1543212600823 M813.5600062130894 431.1342109988575 C905.5002038836029 323.32931165342035, 998.6503977093355 216.5394122076984, 1070.0987802697307 134.8638282967857 M812.896270190636 431.073451985348 C874.1308591285342 359.69547932063017, 936.2156709091172 288.12875829254176, 1070.0686746384838 133.93766514483818 M823.8645805898199 430.5847243513919 C902.6820750882821 339.858097826055, 979.7590488003266 249.45186758731649, 1071.188896147933 146.29171032359255 M823.7755554980002 430.440969385158 C916.4197973212031 321.8828708570258, 1010.7753188776911 213.45389074602224, 1070.811318616089 146.34323374491848 M833.8893134143669 431.3783623717098 C888.066230760142 367.35105653926854, 943.593137548771 306.0292101988195, 1069.3933327165441 158.72679524911658 M833.6491901927978 431.003330312051 C916.8822698039646 336.94688558687335, 998.9732481481074 242.25307547265172, 1070.231505832485 158.8312379336151 M843.6307253892487 430.889275271906 C920.404143621237 345.9435249700259, 995.9389587991933 260.97959169047743, 1069.8858818406002 171.20642791301248 M844.51368445154 430.608998371104 C934.7349000983007 329.62603039624236, 1023.3559014508809 227.56202918028447, 1070.083384963118 171.12744982477932 M855.1144447456848 431.24622808031336 C916.5708048912308 360.82053042979004, 979.1904468616192 289.41977544077673, 1070.3223749339365 182.1229010875746 M855.5523346095804 430.5785901516149 C912.7565632355412 366.10865061250377, 969.3282192530046 300.67238736198345, 1070.1347571151443 182.8166337398523 M865.6837843151377 431.25998782741493 C945.0794706267831 340.1541467678768, 1022.3144789892709 249.09812474823931, 1070.287275881242 194.20772479595868 M866.0577236944044 431.05558260999425 C937.6810594048785 346.4357954408604, 1011.160569850821 263.4595593516645, 1070.9341927677026 195.01606344862395 M877.0735217615904 429.5784673697371 C927.377246270514 369.33532308597836, 979.4756985838557 309.22819645581706, 1070.4370255898552 208.26486474445215 M876.4204217853779 431.0858374917047 C947.162930667674 350.1208623885527, 1016.7444805477685 269.8212632091487, 1070.5752303812328 206.7331496989814 M887.3192597084644 431.61217549484735 C937.5433614324793 370.9982162216297, 990.0914361276274 310.40769542651105, 1069.0862063007733 220.58626949599426 M887.3438781019 430.7249978676315 C937.5661676692571 369.68774568131016, 989.8913649329143 310.8677016229649, 1070.1113587546677 219.5715815383893 M897.587718400175 429.9077029988978 C952.1209675694806 366.63411929866874, 1008.5387807128608 302.89526575073086, 1071.0890490891388 231.16434289611556 M897.4377508907216 431.0858166274594 C964.093135227483 354.1731753955665, 1029.3256064399543 278.977481963329, 1070.5448115643105 231.92084582446006 M907.9342415301193 431.73770644249186 C940.6808996620379 393.43069855999124, 973.6677585551873 356.46267850513783, 1071.4755486154056 243.50447320605423 M908.5259807713531 430.62482280791335 C945.837713850646 387.77822997044746, 982.4425930044604 345.56476914105724, 1070.7302777385212 244.17058621639978 M919.2333459173844 429.4505529016214 C968.3498835802304 371.4569687168049, 1017.6825379795645 316.4405109422149, 1069.7260621456767 257.24765345060104 M919.5170394883868 430.4537111293093 C964.3366416416076 378.034866746771, 1010.0512801829798 325.79728399139714, 1070.8301713790443 256.5221627434722 M928.3318617552787 430.9089674153227 C972.6855443637562 380.7533258108438, 1017.7194136777194 329.0958056715756, 1069.986294691885 266.82615951492517 M930.0965912224336 430.9684207618471 C959.4023295674878 396.4839112093801, 989.2134194532146 362.7334110922735, 1070.517132873475 268.60870464140487 M938.8247803229046 429.123562254751 C979.3176661589376 386.43392573882807, 1018.444576299257 342.24319657588313, 1070.0464240259935 282.4147251543751 M940.3902547734094 430.76345910531813 C990.1078194846874 371.2455729796566, 1041.1620901870815 313.0509020362991, 1069.5477256089216 280.5684801141233 M951.3194794403371 431.73391804526716 C994.6310547797972 380.2264856597944, 1039.4340059421506 328.92631487441537, 1070.3247867561872 293.42064358746416 M951.1397293144345 430.06336975533634 C994.4539739023498 379.76511083976754, 1038.7357769302978 329.33677777949435, 1070.2899392807972 293.30067572790637 M960.2360410306375 429.85147570162707 C1001.2847424908375 381.851358619007, 1043.8332992498595 334.30522002118073, 1069.7748721893638 305.1597770432984 M961.4286195853232 430.8345110329286 C988.912484857295 399.81529875810986, 1013.3075675360078 370.44949284560454, 1070.6653172325186 304.99979470606615 M971.4589997342879 428.81085526053937 C1012.4480153588424 384.3867679384622, 1048.885750306381 342.0255352079283, 1071.9596454190273 316.46008013650663 M972.0708757538215 430.7717180637711 C1003.1315318748582 392.3668728535417, 1036.186598808553 355.0443609088777, 1071.2313540952514 317.7814828466794 M982.6662895806359 429.40693872924953 C1015.4551063545904 394.3348017325083, 1046.5706171371303 358.926314210207, 1070.6281973776775 328.6310725457444 M982.4036401332949 430.2587109393623 C1002.4430217295567 408.3721199489411, 1021.2168824477399 385.72890422911684, 1070.870229483681 329.418186946707 M993.4975081185815 429.6424472153102 C1019.9072730726853 400.83365880704565, 1048.0685391056238 367.9319469682462, 1069.5691770455187 340.5803797786755 M994.1020350900761 430.44736100384455 C1016.4218012973041 402.83545245287013, 1040.8782775768168 376.51770175121175, 1070.1469847951678 341.3121986551281 M1004.0261697054138 431.1113352339569 C1021.4814929018632 409.17593935900044, 1039.0684122753632 390.6252305951808, 1070.5971764300468 354.9070556481679 M1004.6010347099942 429.7461743111855 C1023.8372469677244 406.09039465663204, 1044.3270893202375 382.34437854759324, 1069.8937206257945 353.5217813671543 M1013.7769282141797 429.7003810016437 C1028.7939778675766 415.1819491690189, 1042.4936648295886 396.8876377659652, 1069.702821255767 365.73277230685744 M1014.4162728233053 430.6086838741497 C1030.609086892274 412.8873444567918, 1046.8639793539628 394.16424512371924, 1070.886423892532 365.24611844490386 M1025.0745454280923 431.09122445266 C1041.9371304994095 410.5992080317621, 1059.5844745266918 389.7485096301057, 1071.2379535162502 379.529773735643 M1024.3831994873924 431.64250365708807 C1039.5972385277037 414.81995301604616, 1053.5014878978561 398.4987958260717, 1071.0754940514857 377.40117204634925 M1033.771688795233 431.84625169808396 C1046.8570422932225 419.39158635666627, 1057.876688676872 404.2496845554789, 1070.4234560980817 391.9803885738072 M1034.5980308142803 430.8680352017532 C1048.0352085035404 416.99769491858683, 1060.4148043704968 402.5101618874163, 1070.7184048627857 390.0951375381373 M1046.9181898332988 430.40949700647826 C1052.323575868284 423.26050966533126, 1058.4052828787626 416.3979669466225, 1071.2671071291 401.3901580237652 M1045.6611353657397 430.08613462415195 C1051.7744604162326 424.0792606354107, 1058.6293802803907 416.47250452426937, 1070.2454939510455 403.50002917163005 M1058.0937208968878 430.9398884105255 C1060.9321056029034 425.3736046372742, 1066.700288969002 419.46427182000065, 1071.1501168271745 415.55997993244813 M1056.272610776842 430.8500722492386 C1060.1441630314937 427.5703684647665, 1061.9158843174835 424.4480222209306, 1070.9816617885729 414.88076578884187 M1066.8658178777334 430.6369518686571 C1067.7642591367355 430.0422900286437, 1068.4426470292997 429.1414999040267, 1070.219844590928 426.6345587561592 M1067.21787312293 430.684797214034 C1067.9626206836056 429.65963023856915, 1068.8773633556782 428.6863135726687, 1070.3349805223206 426.8252030500162" stroke="none" stroke-width="1" fill="none"></path><path d="M-0.09961575431447729 -0.19634021881809918 C392.99448776854854 0.5711310505695676, 786.8551801108564 0.9396100059665589, 1069.7234776514554 -0.5414682201916241 M-0.25155224364261525 0.25878982380867704 C295.8379292866511 1.9559576049895477, 592.0411625093691 1.5194330733717976, 1069.9713051614917 -0.25408637323780503 M1069.8564177595397 -0.581369299817417 C1069.2357243025215 89.34688007270383, 1069.240048070203 178.80559045990267, 1070.058733501002 429.61850767400773 M1070.3768585898306 -0.18339062206876602 C1068.6030304464057 97.69724116316871, 1068.2145694791707 196.05869739952416, 1070.1560847455087 429.9960355450154 M1070.4742574952734 429.9334870599257 C818.4436626920034 431.095562537997, 568.6432579902176 431.1647490743687, -0.45093008972017695 429.70757852282975 M1069.8853039889505 430.2456211252326 C716.4955745978688 431.3541312143701, 362.67764445755284 431.6573959821168, 0.189524035364787 430.0447971928122 M0.356523975463761 430.6384363082829 C1.8327249333764204 320.6445000238697, 0.8899178054805179 211.65024211633445, -0.39086564770270543 0.4962797278181165 M-0.311002013781688 430.3498608510144 C-1.5519779510054126 291.58150381454476, -1.0024649136898627 153.5014284206041, -0.3107346419166393 0.0014326992588586313" stroke="#495057" stroke-width="2" fill="none"></path></g><g><path d="M0.07905084114512373 70.19921127907766 C298.1695861495556 69.30250644207658, 595.2962236569175 69.53077779261334, 1069.991988309519 70.06065945771194 M0.12134720661733535 70.02003552807895 C424.18167905752944 70.08452102386771, 848.7139798269541 70.22990444071849, 1069.9177507465704 69.86643822085612" stroke="#495057" stroke-width="2" fill="none"></path></g><g><path d="M0.293802365195771 189.62013167777488 C348.23893746762354 191.5092728244106, 697.1008637937024 191.40087731664698, 1069.994036764058 189.76287383007957 M0.18379164457677552 190.0886841706045 C214.04758669480054 190.66580394261973, 428.11326947507376 190.71204809306732, 1069.885904297636 190.17977983674552" stroke="#adb5bd" stroke-width="1" fill="none"></path></g><g><path d="M-0.1359182356363232 310.33309360139526 C360.6391978579295 308.59324615875187, 722.2453697475147 308.63600368659786, 1070.358469281718 309.9497252803522 M0.01450164071972484 310.0985704493417 C255.28181548631989 309.1922047789026, 510.25387923965417 309.29907139188714, 1070.0751315767914 310.09330748998923" stroke="#adb5bd" stroke-width="1" fill="none"></path></g><g><path d="M160.39702385164395 -0.46867517277261916 C159.7594482225746 120.95817393019446, 159.37226824364993 241.92847969509168, 160.36616135487643 429.9165269727496 M160.03833388431076 0.21718095250968086 C158.880051005101 98.83341215260745, 158.99887573324824 197.4310965787715, 160.23681804357295 429.81910718347956" stroke="#495057" stroke-width="1.5" fill="none"></path></g><g><path d="M509.8164917234202 -0.2867968388016749 C510.1778148465631 149.20285035066289, 510.21358112002173 298.4522917526313, 510.3489276985998 430.3667773325528 M509.785058125329 -0.23285788521013523 C510.08737047116 131.6142611415509, 510.12475536759564 263.4322391532953, 510.1353443207987 429.84729944673444" stroke="#dee2e6" stroke-width="0.5" fill="none"></path></g><g><path d="M780.220485757194 0.1303641438344332 C780.683118761435 106.99217983531042, 779.8890049831709 213.34483177399025, 779.8534308946456 429.52499878768066 M780.0866745046505 0.007958480606785135 C779.0770290991047 149.05647221759415, 779.3897581694617 298.41309388463026, 779.8408981636367 430.1571457577593" stroke="#dee2e6" stroke-width="0.5" fill="none"></path></g><text x="80" y="35" text-anchor="middle" dominant-baseline="middle" font-size="28" font-weight="600" font-style="normal" fill="#495057">Memory type</text><text x="335" y="35" text-anchor="middle" dominant-baseline="middle" font-size="28" font-weight="600" font-style="normal" fill="#495057">Manufacturing example</text><text x="645" y="35" text-anchor="middle" dominant-baseline="middle" font-size="28" font-weight="600" font-style="normal" fill="#495057">Representation</text><text x="925" y="35" text-anchor="middle" dominant-baseline="middle" font-size="28" font-weight="600" font-style="normal" fill="#495057">Architectural basis</text><text x="80" y="130" text-anchor="middle" dominant-baseline="middle" font-size="30" font-weight="600" font-style="normal" fill="#1864ab">Episodic</text><text x="172" y="102.5" text-anchor="start" dominant-baseline="middle" font-size="22" font-weight="400" font-style="italic" fill="#495057">Bearing failed on Press 7 after</text><text x="172" y="130" text-anchor="start" dominant-baseline="middle" font-size="22" font-weight="400" font-style="italic" fill="#495057">humid weekend; technician found</text><text x="172" y="157.5" text-anchor="start" dominant-baseline="middle" font-size="22" font-weight="400" font-style="italic" fill="#495057">misalignment, not wear</text><text x="522" y="102.5" text-anchor="start" dominant-baseline="middle" font-size="22" font-weight="400" font-style="normal" fill="#212529">Event graph node with</text><text x="522" y="130" text-anchor="start" dominant-baseline="middle" font-size="22" font-weight="400" font-style="normal" fill="#212529">sensor snapshot, actor,</text><text x="522" y="157.5" text-anchor="start" dominant-baseline="middle" font-size="22" font-weight="400" font-style="normal" fill="#212529">outcome</text><text x="792" y="116.25" text-anchor="start" dominant-baseline="middle" font-size="22" font-weight="400" font-style="normal" fill="#212529">Graph-based with</text><text x="792" y="143.75" text-anchor="start" dominant-baseline="middle" font-size="22" font-weight="400" font-style="normal" fill="#212529">temporal edges (Zep)</text><text x="80" y="250" text-anchor="middle" dominant-baseline="middle" font-size="30" font-weight="600" font-style="normal" fill="#2b8a3e">Semantic</text><text x="172" y="222.5" text-anchor="start" dominant-baseline="middle" font-size="22" font-weight="400" font-style="italic" fill="#495057">Polymer X requires ≤3.8 bar;</text><text x="172" y="250" text-anchor="start" dominant-baseline="middle" font-size="22" font-weight="400" font-style="italic" fill="#495057">weekend shutdowns increase</text><text x="172" y="277.5" text-anchor="start" dominant-baseline="middle" font-size="22" font-weight="400" font-style="italic" fill="#495057">misalignment risk on hyd. presses</text><text x="522" y="222.5" text-anchor="start" dominant-baseline="middle" font-size="22" font-weight="400" font-style="normal" fill="#212529">KG triples grounded in</text><text x="522" y="250" text-anchor="start" dominant-baseline="middle" font-size="22" font-weight="400" font-style="normal" fill="#212529">ISA-95 / ISO 14224</text><text x="522" y="277.5" text-anchor="start" dominant-baseline="middle" font-size="22" font-weight="400" font-style="normal" fill="#212529">ontology</text><text x="792" y="236.25" text-anchor="start" dominant-baseline="middle" font-size="22" font-weight="400" font-style="normal" fill="#212529">Ontology-grounded KG</text><text x="792" y="263.75" text-anchor="start" dominant-baseline="middle" font-size="22" font-weight="400" font-style="normal" fill="#212529">with validity intervals</text><text x="80" y="370" text-anchor="middle" dominant-baseline="middle" font-size="30" font-weight="600" font-style="normal" fill="#e67700">Procedural</text><text x="172" y="342.5" text-anchor="start" dominant-baseline="middle" font-size="22" font-weight="400" font-style="italic" fill="#495057">After weekend shutdown: check</text><text x="172" y="370" text-anchor="start" dominant-baseline="middle" font-size="22" font-weight="400" font-style="italic" fill="#495057">bearing alignment before restart</text><text x="172" y="397.5" text-anchor="start" dominant-baseline="middle" font-size="22" font-weight="400" font-style="italic" fill="#495057">(added after Episode #247)</text><text x="522" y="356.25" text-anchor="start" dominant-baseline="middle" font-size="22" font-weight="400" font-style="normal" fill="#212529">Versioned step sequence</text><text x="522" y="383.75" text-anchor="start" dominant-baseline="middle" font-size="22" font-weight="400" font-style="normal" fill="#212529">with provenance links</text><text x="792" y="356.25" text-anchor="start" dominant-baseline="middle" font-size="22" font-weight="400" font-style="normal" fill="#212529">Decision tree + episode</text><text x="792" y="383.75" text-anchor="start" dominant-baseline="middle" font-size="22" font-weight="400" font-style="normal" fill="#212529">references (Memᵖ)</text><text x="14" y="452" text-anchor="start" dominant-baseline="middle" font-size="24" font-weight="400" font-style="italic" fill="#868e96">All stores temporally versioned with bi-temporal validity intervals</text></svg>