<svg id="canvas" xmlns="http://www.w3.org/2000/svg" width="1160" height="510" viewBox="-20 -20 1160 510" data-ready="true"><g><path d="M48.25926519724419 30.74826568673019 L297.73739690135056 27.986579870991225 L298.3331268437716 140.68310624795254 L48.02041510722431 141.13359382094544" stroke="none" stroke-width="0" fill="#d0ebff"></path><path d="M49.879256227039015 30.982070328062086 C132.38965442947014 30.417896724508896, 215.91195807547822 31.474782214793557, 300.5446697012558 30.95851034945942 M50.52917481759324 30.93985212025069 C150.10073559722338 26.92432703866685, 249.43768773883147 28.590470461173553, 300.6199041976362 29.5021640425397 M298.15588346580387 32.126269865929665 C299.6548645028815 50.6699049602414, 299.4184676879278 74.42258738876679, 298.16375951761046 139.96257134306347 M299.3635711540643 30.970351304455228 C300.2548363347834 68.43458056870587, 300.5465002860466 108.4150638977707, 299.3651121119077 139.57118275153454 M300.72917791872294 141.45805210863594 C239.2644239352556 139.74841529075297, 181.19502989260587 142.7871089671189, 48.98699641623615 139.56437711806026 M300.04292375363525 140.21967620862873 C223.20328691629 141.5800194312354, 147.1185547609653 141.6777138164887, 50.75224493600054 140.6093545828354 M49.557564053976215 140.9398661256989 C51.641650132675444 109.69750839613289, 51.628311557831765 77.59893832266657, 49.04875379492553 28.659079897988235 M51.1339858773398 139.30412342456742 C49.57820654708922 107.22336923399578, 49.93699351634768 75.26144511293002, 51.132518522655865 30.408983518998433" stroke="#228be6" stroke-width="2.5" fill="none"></path></g><text x="175" y="70" text-anchor="middle" dominant-baseline="middle" font-size="36" font-weight="600" font-style="normal" fill="#228be6">Capture</text><text x="175" y="108" text-anchor="middle" dominant-baseline="middle" font-size="25" font-weight="400" font-style="normal" fill="#495057">Multimodal Ingestion</text><g><path d="M410.5283433991509 30.32439864680918 L659.0312934801168 31.056160339603792 L657.6933390698927 138.67732101022673 L411.8386917977041 139.09419259847706" stroke="none" stroke-width="0" fill="#d3f9d8"></path><path d="M410.3077998266428 31.53219325436733 C509.5648773363995 26.417982719362936, 607.1095310162322 28.27198846495994, 659.5817944636293 31.940529439212906 M409.04045351021654 30.441456599783663 C494.2172751887226 28.80058207900199, 578.2562040825152 29.457953127910443, 659.5899741081147 30.777653645100987 M660.1171091420214 28.39245323782637 C660.3651091827342 69.78877260776031, 661.8574190313965 113.02738471646146, 661.7479067060476 138.44042321629956 M658.8982947182249 29.707889727243142 C660.4408082917154 65.62364754899808, 660.8807376161607 99.03418534690917, 659.7257745082849 141.05031296104863 M659.0229342548196 138.48535679662956 C602.7840372134458 137.84810051687035, 546.3186975355565 137.56760314849095, 410.21238786827325 141.77324074926946 M660.0973321400313 139.87609357229212 C594.0481601693766 141.93702138745874, 528.6813907831859 141.76342411852775, 410.00474276685617 140.96033071639883 M408.697064325798 138.3370724539485 C409.4763979939479 101.70931092877545, 410.7646972046408 61.056161590164606, 412.07323565172584 28.865163330434676 M410.89283660615763 140.32170394715646 C409.36053368714283 112.48140970873422, 409.6060230162774 84.93222367254302, 410.55243412440586 29.592768034990367" stroke="#2b8a3e" stroke-width="2.5" fill="none"></path></g><text x="535" y="70" text-anchor="middle" dominant-baseline="middle" font-size="36" font-weight="600" font-style="normal" fill="#2b8a3e">Organize</text><text x="535" y="108" text-anchor="middle" dominant-baseline="middle" font-size="25" font-weight="400" font-style="normal" fill="#495057">Structured Memory</text><g><path d="M770.671627953505 28.417918404587503 L1019.7384569903841 30.07400335935108 L1021.6698453230208 138.14603955145154 L770.8719295434204 138.6141528605655" stroke="none" stroke-width="0" fill="#fff3bf"></path><path d="M770.7456359993514 30.919964057412482 C843.6771617845375 28.423561377025486, 920.4551981663478 28.508120242196938, 1019.8862606271218 30.28259682246611 M769.7725354011206 30.26469146569545 C828.5738277073925 28.423800305537757, 887.6614277168746 28.808254603380927, 1020.3944021038977 30.867445572114566 M1018.6898267943423 29.344681061536267 C1018.4545633936812 72.98690157839731, 1020.4699530173443 114.56521971843236, 1021.8934036688757 140.23393760200003 M1020.0530993988773 29.3664879884441 C1019.0265900931867 56.37024380701545, 1019.6755312228464 83.06435256071936, 1019.4015158667909 139.20077914717442 M1018.8765820122561 139.6962320076722 C921.5529227460802 143.87025692538447, 823.8179943057506 141.98978404183458, 769.2098008220927 138.83296993248712 M1020.6563736590986 140.09913713243273 C944.3975560459183 140.86884318631124, 868.644765814668 142.2974102637476, 770.1960036455728 139.90538086883458 M770.8223566810253 138.14454809061843 C767.6309363387544 113.88833126299066, 770.5481663236064 89.07092033016549, 769.2441899351003 31.99664900731412 M770.9797782570402 139.76736903032537 C768.5013396507342 114.2271581971461, 768.259516976034 86.20640306463943, 770.934976011118 29.966991775368236" stroke="#e67700" stroke-width="2.5" fill="none"></path></g><text x="895" y="70" text-anchor="middle" dominant-baseline="middle" font-size="36" font-weight="600" font-style="normal" fill="#e67700">Transfer</text><text x="895" y="108" text-anchor="middle" dominant-baseline="middle" font-size="25" font-weight="400" font-style="normal" fill="#495057">Contextual Delivery</text><g><path d="M309.48739942870736 84.57802073388963 C342.5437017960942 85.08043937796381, 376.7021580469666 84.54853211179694, 402.9450956335469 85.1636665837662 M308.5075654270549 85.34490296619082 C327.0564947676213 84.32738763860796, 346.2917712028392 84.65310980420846, 402.43225102824283 85.56674851603955" stroke="#495057" stroke-width="2.5" fill="none"></path></g><g><path d="M388.7093281463787 93.78805006685033 C391.5366265050805 90.36679004634091, 395.2075212097008 89.19574609737339, 402.0732751122237 84.26428420994252 M387.909108528869 93.15918043975064 C392.55603940568074 90.12612849998223, 397.3081511917963 87.68628175519655, 402.44557755449637 85.32023699344313 M401.317386777339 84.36914883742875 C398.5193712150624 81.97149942241002, 394.673659917135 80.45934277617303, 388.2756362130561 76.95205529918996 M401.5816853846876 85.24235197787884 C396.90626667015414 82.12456461835292, 391.3795517929493 78.74892936728057, 387.7113885121702 77.43151912758175" stroke="#495057" stroke-width="2.5" fill="none"></path></g><g><path d="M667.9170223411182 85.58370120074625 C699.8782425120546 84.1132528139598, 731.0953717099982 84.84924273719245, 761.0077288619348 86.56784897606052 M668.1910530071559 85.74097139997242 C703.0283791451614 83.84024154483723, 736.6490750661808 84.74993320435351, 761.5535066805912 84.97179316026975" stroke="#495057" stroke-width="2.5" fill="none"></path></g><g><path d="M748.0580850128498 92.64787528258658 C751.8477719875424 90.6120778832277, 755.3898510180588 89.32153542552363, 761.6538073110717 84.30002427500357 M748.0096228194313 92.58401316362108 C753.9507334083082 89.58661683753616, 758.9640371252052 87.07242939140176, 762.4141659933236 85.0341885775207 M762.8236292864603 85.21216829427776 C758.0932571743222 83.84334339568531, 755.3242865433086 81.3066597795983, 748.2736962495298 77.07927740164764 M762.3986428290038 85.09930500664619 C757.87610979276 82.66078114046682, 754.5089754907574 80.64549453326597, 748.2848094800835 77.0145231953564" stroke="#495057" stroke-width="2.5" fill="none"></path></g><g><path d="M64.02301428423162 175.10293672294353 L287.6112511953257 174.33726721667307 L286.5615629965627 219.98655245797946 L61.022809464002684 218.1971517422178" stroke="none" stroke-width="0" fill="#e7f5ff"></path><path d="M61.53212150465588 175.85038361285578 C124.12889049427969 174.444064082225, 183.73792710047502 175.2579090416821, 287.9119070209431 173.50244236632471 M62.8433179230409 174.45949037011067 C152.0379036058416 174.9647433216044, 242.5323932730829 174.35872653470122, 287.28461427221595 174.83382528435433 M287.4899684040119 173.6018461099449 C288.221878689175 190.0918310399453, 288.97882697854163 208.38447112139139, 285.737320883871 220.48010094906073 M287.99513100865335 174.18513364673043 C286.8979488753086 187.37832664491512, 287.90266471903664 197.7331388341809, 286.93957295005396 219.3089777625742 M286.4086758371524 220.22054923944472 C234.70775034277253 218.66111162930616, 180.5214407641255 220.1711116740904, 63.05570454919592 218.37424505868867 M287.8902635127107 219.12862754153088 C208.38054593622942 218.89459378777772, 127.65864315228485 219.7987901928894, 63.23881594101804 218.85274217159872 M62.71611188271712 217.60793941234522 C62.56151947897604 210.75511795025307, 63.78921350300498 199.69861152486925, 63.495370656323416 175.53814820347 M62.76613942390655 218.73083232699545 C62.800037856423515 205.31060701079943, 62.86201823482382 191.35482259162958, 61.902644982106025 175.16840106361053" stroke="#228be6" stroke-width="1.2" fill="none"></path></g><text x="175" y="197" text-anchor="middle" dominant-baseline="middle" font-size="25" font-weight="400" font-style="normal" fill="#212529">On-the-job obs.</text><g><path d="M62.42901469328256 226.8780226200937 L286.9932098560838 227.8663711732798 L289.06536913697255 269.6305344365322 L62.35434992693478 272.52282239483344" stroke="none" stroke-width="0" fill="#e7f5ff"></path><path d="M62.40701714843838 228.04843031385153 C151.38061597096518 224.90360881722376, 240.95035518998253 225.1175686907989, 288.89161108541106 225.8859799380294 M62.06764359707014 226.54447792338448 C107.78536604978187 227.44826870342217, 154.45694068635322 227.83655147566108, 287.67277608973575 227.03446895780192 M287.6295795538159 225.44759558492203 C289.0583737218382 243.088570097246, 286.4619041782797 260.8788759419786, 286.6088515994286 271.2018389933381 M286.94716947533834 226.65355350744352 C286.77777948380594 242.82256931952307, 288.30115521550545 257.6339619666999, 287.5889818241706 271.17245591067893 M286.99130840269237 271.2875406038441 C236.50938742956902 269.1225737682441, 188.87470450407633 270.54943567485685, 62.81142495133608 270.3524589409473 M287.8763364564041 271.0698404262359 C218.40245805022565 270.72351187525845, 148.0044853889602 270.05144057707554, 61.97215695147142 270.3900790131967 M62.795265891955275 272.17527731466106 C62.991413457233016 259.1548663981045, 61.15652739704386 245.79961972381633, 63.65741731512833 228.7978150891883 M62.469361258189025 270.4822912221724 C62.481482717142775 257.71499119123223, 61.96345303622635 243.22280124547413, 62.294750791257535 226.31302343212744" stroke="#228be6" stroke-width="1.2" fill="none"></path></g><text x="175" y="249" text-anchor="middle" dominant-baseline="middle" font-size="25" font-weight="400" font-style="normal" fill="#212529">Agentic interviews</text><g><path d="M64.10390219382285 279.0735526030704 L286.79464866403487 278.0165719446292 L287.7742647842171 322.0206219361454 L62.7893015853051 323.2623670753453" stroke="none" stroke-width="0" fill="#e7f5ff"></path><path d="M63.68272954180866 278.14656174450585 C126.78520044303878 277.82801818215586, 193.1615121668666 279.3254552803247, 286.68646022144475 279.04351877563545 M62.425534628258845 278.8151008139048 C130.36233586300028 280.66879310189137, 197.33721191643002 281.33330680408034, 287.84335154728274 279.5872874672513 M287.9342896326383 279.3423642337791 C285.99689345115837 293.51701978316777, 286.3365975914077 304.98490013275614, 288.7905178155266 322.23164282270875 M287.1260644105021 279.86173147686424 C286.55576739008603 294.6446858723302, 287.9414369531931 310.0662077149341, 287.91099616537974 322.7871174480418 M287.4593857461941 321.49090834303746 C224.76723326043913 324.12463546719454, 166.0039767741277 325.8982108247552, 61.530886196731494 323.73865906774967 M287.77425455394916 323.06880526314137 C236.60560307847987 323.75907218839285, 186.5809928905182 323.59790751987106, 62.0935888509816 322.75642163234727 M63.03660943572105 323.41570268839894 C64.06209346495544 315.82829997962784, 64.45613473328861 305.04201780699935, 61.05184902407418 279.69101342491956 M62.08978943476687 323.7516520933007 C63.37407981371979 310.7555945969835, 62.87064559745715 297.18339402440824, 62.321264510770035 278.8281486237917" stroke="#228be6" stroke-width="1.2" fill="none"></path></g><text x="175" y="301" text-anchor="middle" dominant-baseline="middle" font-size="25" font-weight="400" font-style="normal" fill="#212529">Passive monitoring</text><g><path d="M63.29131438711457 330.53844200486736 L286.3240456373376 330.780689278457 L287.115123123075 374.6701339761746 L60.83432246158265 376.2537969812134" stroke="none" stroke-width="0" fill="#e7f5ff"></path><path d="M63.77581262742281 329.58918764723404 C144.45471589304037 333.4548955645444, 225.27470903116122 332.3410236597015, 288.58442856043587 329.96004078336335 M62.60597048780713 330.2988699223886 C125.07103822086438 331.66899975535904, 186.9459230581683 330.8833720524729, 287.32773981470007 331.08356636400356 M286.8842094540514 329.9471828280403 C287.9573765969354 340.7314179504575, 287.6720695256011 351.18873824160227, 288.64569701864446 376.22622823348945 M287.166184313548 331.37400999386233 C287.87681749638057 343.8153594501848, 287.09419754964 354.7956695731866, 286.8541631390973 374.54392950099106 M286.1933433197726 373.56855675253126 C209.7190718913524 375.50672814377714, 129.0941986547184 376.383660696803, 61.99826560363943 374.6014285017743 M287.8174532551833 375.11856559616757 C210.38086788917613 375.25122864018243, 133.54447138827058 374.39624016033247, 62.50395590988934 375.7156578297819 M61.7223684533766 375.4464893363123 C61.7615405852188 366.0721228680116, 61.56088529756701 356.1050812123987, 62.161801141306114 330.4426234869217 M61.902798968753594 374.5129136813259 C63.295711539554304 358.52568931043726, 62.98435655618527 342.6372996892298, 61.82105145133575 331.8877141302412" stroke="#228be6" stroke-width="1.2" fill="none"></path></g><text x="175" y="353" text-anchor="middle" dominant-baseline="middle" font-size="25" font-weight="400" font-style="normal" fill="#212529">Retroactive synthesis</text><g><path d="M423.6298402948607 173.73040542622246 L646.5802692718702 175.8665266027125 L646.7932348529278 220.06505059952542 L422.1151573619377 217.92352758904403" stroke="none" stroke-width="0" fill="#ebfbee"></path><path d="M421.72815885579024 175.7170007414958 C498.5178142380345 175.86836545162964, 576.2359175336437 176.76642252693793, 648.0616294580769 174.18692465816872 M421.89907973203606 174.8388160469928 C497.42865236709446 176.14605380739334, 571.5672550983703 175.7464591930575, 647.1747302053824 175.43154275288933 M646.3857092698926 176.11998931769205 C647.7331035795755 192.02386437416843, 646.0563113646231 208.2707463868313, 646.4145799095277 219.03310359645866 M647.4436011452931 175.03003179119284 C647.2991104232492 191.6131055329959, 648.0748882313268 208.86629173779963, 646.8729319557877 218.34844088860638 M646.9677163973521 218.71117858609938 C562.8198064257896 219.6592659671332, 480.81087574539185 217.63222883335698, 423.9614645108295 220.23146495858023 M648.2681672549863 218.71032955845126 C589.670422625466 219.80512294286976, 532.5030338299476 219.9107799083196, 422.0093713726682 219.40542439966728 M423.91828404868465 220.67714365786782 C420.6907597169848 205.32964542783085, 421.19988393684065 187.7548010612993, 423.2529732068354 174.8728984694119 M423.17060809940614 218.1495333841986 C421.4553273958671 205.0121409366746, 422.81365419046637 190.06462436692746, 422.7755462953415 175.7004473105724" stroke="#2b8a3e" stroke-width="1.2" fill="none"></path></g><text x="535" y="197" text-anchor="middle" dominant-baseline="middle" font-size="25" font-weight="400" font-style="normal" fill="#212529">Episodic store</text><g><path d="M423.12943829981407 225.45113465266337 L646.7662043242768 227.07509854721397 L647.547547938119 269.49164063684407 L423.97904795592706 270.26821461870287" stroke="none" stroke-width="0" fill="#ebfbee"></path><path d="M423.7539441140952 226.62221778350775 C508.12888263528805 227.42108879726098, 592.9048588768756 228.0185405275657, 648.8097695975385 227.2700812091017 M422.8676934775726 226.33132785853547 C509.08040369835993 226.137243394028, 596.075487245049 226.39577268828575, 647.8490735106429 227.7011466228623 M646.2022566394882 225.57075453775968 C648.8822936781705 244.03357900665947, 646.1941130695236 260.3354023171208, 646.8302269607866 272.2317743907835 M646.7569928127522 226.48135715009488 C648.2860206763704 236.02775416507325, 647.3963223761839 246.33103448591154, 646.6091956184865 271.4004987192815 M648.6712439127512 270.5938171877024 C577.7935851650574 273.3754776154644, 511.44740411384674 273.2184084381651, 422.61743011386767 270.47000087535946 M646.8899486258025 271.7039017496879 C568.2629864411816 268.86556507748605, 490.08273711525754 269.107292100557, 422.90824599688466 270.5539814731488 M422.92273742943246 270.06646185586783 C421.8012517195871 254.43513347702327, 422.4411677053189 240.20965652363014, 423.0853331457432 228.42453790309256 M422.1112365626284 271.84755893496697 C423.1261887453678 253.96685937191918, 423.0198709377471 238.46725316801394, 422.35066242843254 227.69141218190154" stroke="#2b8a3e" stroke-width="1.2" fill="none"></path></g><text x="535" y="249" text-anchor="middle" dominant-baseline="middle" font-size="25" font-weight="400" font-style="normal" fill="#212529">Semantic KG</text><g><path d="M421.3510621278122 278.2324636882017 L645.9867702456075 277.6336948836316 L646.595327296872 321.5416897564596 L421.7937410690769 322.11591340502815" stroke="none" stroke-width="0" fill="#ebfbee"></path><path d="M422.7209166323381 277.89197221504486 C505.24884125485954 276.50314193177286, 587.7246468424636 277.7779702327835, 648.4990011731062 277.71480690115897 M421.7495265680313 278.9639627525183 C482.61485076545284 280.17957071044333, 541.6110021010634 279.5901157511176, 646.8057291711733 278.9551057539425 M647.1781225356987 279.69892959712064 C646.4321709343324 297.19639932308434, 645.9936824901467 314.6903388174095, 646.696842518754 322.298955867957 M647.6870169893292 278.57090077004864 C647.9555168023662 289.71148895396067, 647.9205974295493 302.6036283364398, 648.211418177694 322.91436786866086 M646.8799254345482 321.57901797817703 C602.2331307515956 323.8490980585478, 555.2966052773036 322.167106716999, 422.59269939025654 322.1689748730505 M647.0874651747886 322.46313364534245 C593.176440835505 324.67026444521775, 538.3266165060601 324.381097589675, 423.0747767940298 322.95151161540963 M422.9640345697513 322.8980910785238 C423.94968105792225 310.58167300387527, 423.0790396606917 300.69904755360983, 423.60504734266783 279.32385175495807 M421.88614847002475 323.63339988210123 C422.0448910585562 305.824037040769, 422.67895198910907 288.1892363144563, 422.18548456626075 278.3849709641874" stroke="#2b8a3e" stroke-width="1.2" fill="none"></path></g><text x="535" y="301" text-anchor="middle" dominant-baseline="middle" font-size="25" font-weight="400" font-style="normal" fill="#212529">Procedural memory</text><g><path d="M422.30551742477354 330.9065437569456 L646.4156574267752 330.11854907088116 L646.3999569274923 373.5782510045188 L421.6278146025478 374.56564105046766" stroke="none" stroke-width="0" fill="#ebfbee"></path><path d="M422.3476115944206 330.50939477465664 C471.3608163601825 330.36481068736236, 520.5299400094133 330.1950822954388, 646.2749012684002 329.4689276603538 M421.81316463607897 330.4378173264116 C476.73190234119335 332.2548421672565, 530.78550489941 331.9815620278419, 646.7528657172276 331.4820681422167 M647.0989871818382 329.8759593878852 C648.2666203176268 349.2818614044096, 647.1947022308783 367.2252852341448, 648.5950341852571 376.2798694744988 M646.7686560241924 331.4079413109116 C647.0672276139934 340.77251451661016, 647.4775474599121 352.0556331873908, 646.6859253372864 375.7458209255601 M647.2000364995289 374.1431756388548 C601.6830626478305 374.6171477751007, 554.5402365233742 375.2159389505459, 422.4614492254848 374.7656540534076 M647.3345632617369 375.3039536759579 C562.837265967465 375.7629083583362, 477.60084871446617 375.4971178804657, 423.1909025552837 375.15333830915415 M424.0808523166555 375.525165304133 C423.0804904109696 362.15575558485557, 421.48586676547 350.05522537555646, 422.3800146859516 331.92035859028505 M423.0170067704234 375.77994100722594 C421.62446146785436 360.37395619999876, 421.86145420628765 346.8474340207165, 421.62150976725695 331.367776319485" stroke="#2b8a3e" stroke-width="1.2" fill="none"></path></g><text x="535" y="353" text-anchor="middle" dominant-baseline="middle" font-size="25" font-weight="400" font-style="normal" fill="#212529">Temporal versioning</text><g><path d="M781.196040754389 173.62257488942808 L1006.3755875357115 176.1430013787762 L1008.7342371878307 219.0368031166765 L784.2952400794835 217.44400910405736" stroke="none" stroke-width="0" fill="#fff9db"></path><path d="M781.8498346942334 173.9955296790472 C872.1061457680674 176.69779104320702, 961.6372463836408 176.60527164311796, 1007.226785650074 176.12132112724743 M782.8461770678538 175.69198157478058 C865.6417100786517 176.39086776361938, 948.2559807697012 176.4085315428247, 1007.8615197590128 174.38026918029445 M1008.2932191068651 176.36162034090762 C1008.8319657835385 191.5497920930153, 1006.1455005004605 207.2040045607992, 1007.2894051378993 219.34490750766545 M1007.0896857001087 175.89000556079628 C1006.5445807932562 187.3398467946639, 1006.5163668975472 198.03544582597726, 1006.9677116056896 218.22177895490336 M1007.4286928004334 219.02471420546698 C919.891871503961 220.6201013888817, 831.0487833097134 219.19635203928436, 783.626882942131 220.05532412934093 M1007.8514630333946 219.55990835023422 C945.9315576898285 217.78530083424604, 885.1636074125508 217.0725254636613, 783.1002391407582 219.6999885908914 M781.6072843594253 220.58839926070928 C781.4675436913041 209.793458330392, 782.2262476814965 198.9963394249389, 781.8562019095042 173.28509213064257 M782.9350055479811 219.57298494431052 C781.3438319847877 209.8330896431764, 781.6541650483963 200.73892703112105, 781.6168410981763 174.78836651664625" stroke="#e67700" stroke-width="1.2" fill="none"></path></g><text x="895" y="197" text-anchor="middle" dominant-baseline="middle" font-size="25" font-weight="400" font-style="normal" fill="#212529">Digital mentoring</text><g><path d="M783.686070998972 228.54120351799892 L1007.1808971375447 227.42067192586998 L1006.6001759477243 269.3516630803622 L783.9183838139721 272.0036860667948" stroke="none" stroke-width="0" fill="#fff9db"></path><path d="M782.1290686068907 226.79757085689405 C839.5745528939965 226.61153515129502, 895.3121270273004 229.39601586567025, 1007.8327583653842 225.57929190528327 M782.0804087975996 226.47753171598293 C835.6891202217821 229.20590670401407, 890.0143338099257 228.86048522107026, 1007.0042064377232 227.03722995442376 M1007.6383306497937 225.3594618149627 C1005.6072423851566 241.40452516926533, 1005.5380755697249 255.31915524619498, 1008.3009690729907 270.59660749348024 M1007.5387601295191 226.37937186728422 C1008.3545984055033 244.25911920092642, 1008.3167871949427 260.40374441038534, 1007.2139761529164 271.71518386881434 M1008.8927472044903 270.6595526062003 C937.1195577230568 271.0238027236723, 867.3401933127775 269.8791239475503, 783.3682926883589 272.51400338721254 M1007.5967305112291 271.54457903739404 C925.1175667039804 272.0146301211792, 841.5081371717439 271.6206999867426, 783.1857586491442 270.43767168078006 M782.3124937427889 270.5384203009395 C781.5757106362631 256.8108991377098, 784.002456543445 242.6704560625604, 783.5027243233047 227.65683461338892 M783.3721194762192 270.9721222493128 C782.0968472331834 253.97042082231437, 781.692636626853 238.85076551528286, 783.1103068928938 226.83993379271385" stroke="#e67700" stroke-width="1.2" fill="none"></path></g><text x="895" y="249" text-anchor="middle" dominant-baseline="middle" font-size="25" font-weight="400" font-style="normal" fill="#212529">Real-time guidance</text><g><path d="M783.6828693799449 279.6745530812319 L1006.2468602890602 277.74639588307923 L1007.1197122041685 322.8022270171252 L783.4854365829617 322.9280231771149" stroke="none" stroke-width="0" fill="#fff9db"></path><path d="M783.6818184771934 279.98694718285316 C861.3086731187194 280.92355147855005, 939.3715506463176 280.0467200677778, 1007.7373968565271 277.514448550022 M782.7416409618098 278.5064648783648 C836.3033553735471 280.1415235183741, 891.0461350644712 280.86874479281545, 1007.3019356493863 279.4876574679184 M1007.0034924440013 277.3612412946405 C1008.7676742059847 295.0601273077734, 1005.9394628997144 308.6118224632958, 1009.2586091823931 322.8739035274986 M1007.9504552299328 278.26926813800094 C1006.843695009855 289.82877314904016, 1007.8071583965196 300.7884824334418, 1007.368046179656 323.8171923254407 M1008.3107127335852 322.3794778608444 C929.671404050008 323.59535092244766, 849.4251226352095 323.88300347992475, 782.3783788189724 323.72052314326817 M1008.075731806931 323.33529832277804 C947.9063330857917 322.01240070894244, 888.7371263341867 322.7760265426707, 782.2230107935007 323.62839985687236 M782.1865670254873 323.71093453562617 C784.3300602134211 307.29831694518055, 782.4924542929875 286.9489597599543, 784.1588086785532 280.54347223832195 M781.9371521606505 322.64840717411477 C783.2962907538966 311.90193188827516, 782.5505041686488 302.3806756549753, 782.0845397985953 279.28991646467387" stroke="#e67700" stroke-width="1.2" fill="none"></path></g><text x="895" y="301" text-anchor="middle" dominant-baseline="middle" font-size="25" font-weight="400" font-style="normal" fill="#212529">Training scenarios</text><g><path d="M175.54884065849745 398.1680656050379 C377.89929241042347 397.84331501754554, 582.1700353417602 397.950294941101, 895.1828284573114 397.61864701589116 M175.03679511422706 397.70980501989754 C329.1909329085 396.4630992208007, 484.1365575588686 396.78017096089695, 894.9854279924923 397.7553056226849" stroke="#868e96" stroke-width="1.8" fill="none" stroke-dasharray="8 6"></path></g><g><path d="M895.9789163478298 396.5313486294248 C893.9122090317679 379.7981245452819, 894.3004380329982 359.99198623264874, 893.5843723774614 328.83264424408736 M895.1559554679812 398.0231110492476 C895.2321144715805 372.568995589381, 894.9857412033166 347.14604698258194, 894.2896845623079 328.311211532933" stroke="#868e96" stroke-width="1.8" fill="none" stroke-dasharray="8 6"></path></g><g><path d="M175.9665738963537 397.3180551354642 C175.59601623978307 389.916216042554, 173.90539924053115 385.18836783708946, 175.54283554317874 378.7970006930417 M175.10716319866708 397.29337996518365 C175.38351234950545 393.29097014768433, 174.5642226401617 388.7070665751069, 175.07537777542777 380.5636370202068" stroke="#868e96" stroke-width="1.8" fill="none" stroke-dasharray="8 6"></path></g><g><path d="M182.3394898568305 394.6650641386293 C179.99902231090567 390.31811065013505, 178.22411377117444 386.3936360929425, 174.68176404258762 380.4546067220012 M183.3272637268086 394.30668618798626 C181.3587879813435 390.79448030874596, 179.60697513954102 387.59124851968755, 175.1464093287394 380.4707868224796 M174.84538442617048 380.77529076680247 C171.73306221118995 383.52062910272656, 169.70920280750224 388.63416572003996, 167.73358430265492 393.5039795210961 M174.7383435568066 379.6904485319209 C172.58670505051066 384.5214377026836, 169.75415365738627 388.59149838251017, 166.95032725229504 393.6430119695088" stroke="#868e96" stroke-width="1.8" fill="none"></path></g><text x="535" y="420" text-anchor="middle" dominant-baseline="middle" font-size="25" font-weight="400" font-style="italic" fill="#868e96">continuous learning</text></svg>